M48
;Layer_Color=9474304
;FILE_FORMAT=4:4
METRIC,LZ
;TYPE=PLATED
T1F00S00C0.3000
T2F00S00C0.3300
T3F00S00C0.9000
T4F00S00C3.1250
%
T01
X-0006Y-000475
X-000675Y-000275
X-00005Y-000225
X000525Y-000125
X0006Y-000025
X00045Y000075
X0005Y000275
X00071513Y00011513
X000875Y-000125
Y-00065
X000825Y-000975
X00025Y-0009
X0001Y-00095
X-00045Y000375
X-000525Y000575
X-00075Y0005
X-000775Y00095
X-00035Y000925
X001275Y0008
X00155Y0005
X-0009Y00055
Y000425
X-00125Y-000425
Y-000525
T02
X-00018Y-000005
X-00006
Y000115
X-00018
Y000235
X-00006
X00006
X00018
Y000355
X00006
X-00006
X-00018
X00006Y000115
Y-000005
X00018
Y000115
T03
X000746Y000621
X000746Y000875
X001
Y001129
X000746
X001Y000621
T04
X0014Y0
X-0014
M30
