%TF.GenerationSoftware,Altium Limited,Altium Designer,18.0.11 (651)*%
G04 Layer_Color=0*
%FSLAX43Y43*%
%MOMM*%
%TF.FileFunction,Plated,1,2,PTH,Drill*%
%TF.Part,Single*%
G01*
G75*
%TA.AperFunction,ComponentDrill*%
%ADD83C,3.125*%
%ADD84C,0.900*%
%TA.AperFunction,ViaDrill,NotFilled*%
%ADD85C,0.300*%
%ADD86C,0.330*%
D83*
X14000Y0D02*
D03*
X-14000D02*
D03*
D84*
X10000Y6210D02*
D03*
X10000Y8750D02*
D03*
Y11290D02*
D03*
X7460Y6210D02*
D03*
X7460Y8750D02*
D03*
X7460Y11290D02*
D03*
D85*
X-500Y-2250D02*
D03*
X-5250Y5750D02*
D03*
X-6750Y-2750D02*
D03*
X-6000Y-4750D02*
D03*
X8250Y-9750D02*
D03*
X-7750Y9500D02*
D03*
X-3500Y9250D02*
D03*
X5250Y-1250D02*
D03*
X8750D02*
D03*
X6000Y-250D02*
D03*
X4500Y750D02*
D03*
X8750Y-6500D02*
D03*
X15500Y5000D02*
D03*
X-7500D02*
D03*
X12750Y8000D02*
D03*
X-9000Y5500D02*
D03*
X5000Y2750D02*
D03*
X7151Y1151D02*
D03*
X2500Y-9000D02*
D03*
X1000Y-9500D02*
D03*
X-9000Y4250D02*
D03*
X-4500Y3750D02*
D03*
X-12500Y-4250D02*
D03*
Y-5250D02*
D03*
D86*
X1800Y3550D02*
D03*
Y2350D02*
D03*
Y1150D02*
D03*
Y-50D02*
D03*
X600Y3550D02*
D03*
Y2350D02*
D03*
Y1150D02*
D03*
Y-50D02*
D03*
X-600Y3550D02*
D03*
Y2350D02*
D03*
Y1150D02*
D03*
Y-50D02*
D03*
X-1800Y3550D02*
D03*
Y2350D02*
D03*
Y1150D02*
D03*
Y-50D02*
D03*
%TF.MD5,5fb9b7fb037fb4f76319dc9eb53131f7*%
M02*
