%TF.GenerationSoftware,Altium Limited,Altium Designer,18.0.11 (651)*%
G04 Layer_Color=8421504*
%FSLAX43Y43*%
%MOMM*%
%TF.FileFunction,Paste,Top*%
%TF.Part,Single*%
G01*
G75*
%TA.AperFunction,SMDPad,CuDef*%
G04:AMPARAMS|DCode=11|XSize=1.4mm|YSize=1.05mm|CornerRadius=0mm|HoleSize=0mm|Usage=FLASHONLY|Rotation=110.000|XOffset=0mm|YOffset=0mm|HoleType=Round|Shape=Rectangle|*
%AMROTATEDRECTD11*
4,1,4,0.733,-0.478,-0.254,-0.837,-0.733,0.478,0.254,0.837,0.733,-0.478,0.0*
%
%ADD11ROTATEDRECTD11*%

%ADD12R,4.700X4.700*%
%ADD13O,0.650X0.200*%
%ADD14O,0.200X0.650*%
%ADD15R,0.600X0.500*%
%ADD16R,0.600X0.550*%
%TA.AperFunction,BGAPad,CuDef*%
%ADD17R,0.450X0.450*%
%TA.AperFunction,SMDPad,CuDef*%
%ADD18R,0.950X0.850*%
%ADD19R,0.500X0.600*%
%ADD20R,0.650X0.500*%
%ADD21R,0.500X0.650*%
%ADD23R,0.750X0.800*%
%ADD24R,1.000X1.800*%
%ADD25R,1.150X0.600*%
%ADD26R,0.550X0.600*%
%ADD27R,0.450X0.450*%
%ADD28R,1.700X1.540*%
%ADD29O,0.200X0.700*%
%ADD30O,0.700X0.200*%
%TA.AperFunction,ConnectorPad*%
%ADD31R,1.850X0.800*%
D11*
X16047Y3825D02*
D03*
X14684Y3329D02*
D03*
X13453Y6712D02*
D03*
X14816Y7208D02*
D03*
D12*
X0Y1750D02*
D03*
D13*
X-3025Y-450D02*
D03*
Y-50D02*
D03*
Y350D02*
D03*
Y750D02*
D03*
Y1150D02*
D03*
Y1550D02*
D03*
Y1950D02*
D03*
Y2350D02*
D03*
Y2750D02*
D03*
Y3150D02*
D03*
Y3550D02*
D03*
Y3950D02*
D03*
X3025D02*
D03*
Y3550D02*
D03*
Y3150D02*
D03*
Y2750D02*
D03*
Y2350D02*
D03*
Y1950D02*
D03*
Y1550D02*
D03*
Y1150D02*
D03*
Y750D02*
D03*
Y350D02*
D03*
Y-50D02*
D03*
Y-450D02*
D03*
D14*
X-2200Y4775D02*
D03*
X-1800D02*
D03*
X-1400D02*
D03*
X-1000D02*
D03*
X-600D02*
D03*
X-200D02*
D03*
X200D02*
D03*
X600D02*
D03*
X1000D02*
D03*
X1400D02*
D03*
X1800D02*
D03*
X2200D02*
D03*
Y-1275D02*
D03*
X1800D02*
D03*
X1400D02*
D03*
X1000D02*
D03*
X600D02*
D03*
X200D02*
D03*
X-200D02*
D03*
X-600D02*
D03*
X-1000D02*
D03*
X-1400D02*
D03*
X-1800D02*
D03*
X-2200D02*
D03*
D15*
X4250Y-500D02*
D03*
X5250D02*
D03*
X-4250Y4750D02*
D03*
X-5250D02*
D03*
Y9500D02*
D03*
X-6250D02*
D03*
X-4250Y-2750D02*
D03*
X-5250D02*
D03*
X8750Y-7402D02*
D03*
X7750D02*
D03*
X6750D02*
D03*
X5750D02*
D03*
X500Y6377D02*
D03*
X-500D02*
D03*
D16*
X3250Y-2500D02*
D03*
X4250D02*
D03*
X-7250Y-8250D02*
D03*
X-6250D02*
D03*
D17*
X-6310Y3525D02*
D03*
Y4175D02*
D03*
Y4825D02*
D03*
Y5475D02*
D03*
X-8190Y3525D02*
D03*
Y4175D02*
D03*
Y4825D02*
D03*
Y5475D02*
D03*
D18*
X-6725Y7175D02*
D03*
Y8325D02*
D03*
X-5275D02*
D03*
Y7175D02*
D03*
D19*
X-8000Y7250D02*
D03*
Y8250D02*
D03*
X-500Y7279D02*
D03*
Y8279D02*
D03*
X-2500Y8250D02*
D03*
Y7250D02*
D03*
X-3500Y7250D02*
D03*
Y8250D02*
D03*
X-4823Y-3877D02*
D03*
Y-4877D02*
D03*
X177Y-4000D02*
D03*
Y-5000D02*
D03*
X9750Y-7351D02*
D03*
Y-6351D02*
D03*
D20*
X475Y9500D02*
D03*
X-475D02*
D03*
X-8225Y0D02*
D03*
X-7275D02*
D03*
D21*
X-1500Y8225D02*
D03*
Y7275D02*
D03*
X500Y8254D02*
D03*
Y7304D02*
D03*
D23*
X-5925Y0D02*
D03*
X-4575D02*
D03*
X-4226Y-1500D02*
D03*
X-5576D02*
D03*
X-6825D02*
D03*
X-8175D02*
D03*
D24*
X-3573Y-4402D02*
D03*
X-1073D02*
D03*
D25*
X-8375Y-4800D02*
D03*
Y-6700D02*
D03*
X-6125Y-5750D02*
D03*
D26*
X500Y-7000D02*
D03*
Y-8000D02*
D03*
X1500Y-7000D02*
D03*
Y-8000D02*
D03*
X2500Y-7000D02*
D03*
Y-8000D02*
D03*
X7403Y3069D02*
D03*
Y2069D02*
D03*
X6500Y3069D02*
D03*
Y2069D02*
D03*
D27*
X425Y-10075D02*
D03*
Y-10925D02*
D03*
X-425D02*
D03*
Y-10075D02*
D03*
D28*
X7500Y-3750D02*
D03*
D29*
X6500Y-2200D02*
D03*
X6900D02*
D03*
X7300D02*
D03*
X7700D02*
D03*
X8100D02*
D03*
X8500D02*
D03*
Y-5300D02*
D03*
X8100D02*
D03*
X7700D02*
D03*
X7300D02*
D03*
X6900D02*
D03*
X6500D02*
D03*
D30*
X9050Y-2750D02*
D03*
Y-3150D02*
D03*
Y-3550D02*
D03*
Y-3950D02*
D03*
Y-4350D02*
D03*
Y-4750D02*
D03*
X5950D02*
D03*
Y-4350D02*
D03*
Y-3950D02*
D03*
Y-3550D02*
D03*
Y-3150D02*
D03*
Y-2750D02*
D03*
D31*
X500Y15500D02*
D03*
Y12100D02*
D03*
%TF.MD5,f70f146194515e6360e5240fbbe25739*%
M02*
