%TF.GenerationSoftware,Altium Limited,Altium Designer,18.0.11 (651)*%
G04 Layer_Color=8388736*
%FSLAX43Y43*%
%MOMM*%
%TF.FileFunction,Soldermask,Top*%
%TF.Part,Single*%
G01*
G75*
%TA.AperFunction,ComponentPad*%
%ADD48C,4.648*%
%ADD49R,1.703X1.703*%
%ADD50C,1.703*%
%TA.AperFunction,ViaPad*%
%ADD51C,0.653*%
%ADD52C,0.863*%
%TA.AperFunction,NonConductor*%
%ADD59C,0.610*%
%TA.AperFunction,SMDPad,CuDef*%
G04:AMPARAMS|DCode=60|XSize=1.603mm|YSize=1.253mm|CornerRadius=0mm|HoleSize=0mm|Usage=FLASHONLY|Rotation=110.000|XOffset=0mm|YOffset=0mm|HoleType=Round|Shape=Rectangle|*
%AMROTATEDRECTD60*
4,1,4,0.863,-0.539,-0.315,-0.968,-0.863,0.539,0.315,0.968,0.863,-0.539,0.0*
%
%ADD60ROTATEDRECTD60*%

%ADD61R,4.903X4.903*%
%ADD62O,0.853X0.403*%
%ADD63O,0.403X0.853*%
%ADD64R,0.803X0.703*%
%ADD65R,0.803X0.753*%
%TA.AperFunction,BGAPad,CuDef*%
%ADD66R,0.653X0.653*%
%TA.AperFunction,SMDPad,CuDef*%
%ADD67R,1.153X1.053*%
%ADD68R,0.703X0.803*%
%ADD69R,0.853X0.703*%
%ADD70R,0.703X0.853*%
%ADD71C,0.403*%
%ADD72R,0.953X1.003*%
%ADD73R,1.203X2.003*%
%ADD74R,1.353X0.803*%
%ADD75R,0.753X0.803*%
%ADD76R,0.653X0.653*%
%ADD77R,1.903X1.743*%
%ADD78O,0.403X0.903*%
%ADD79O,0.903X0.403*%
%TA.AperFunction,ConnectorPad*%
%ADD80R,2.053X1.003*%
D48*
X14000Y0D02*
D03*
X-14000D02*
D03*
D49*
X10000Y6210D02*
D03*
D50*
X10000Y8750D02*
D03*
Y11290D02*
D03*
X7460Y6210D02*
D03*
X7460Y8750D02*
D03*
X7460Y11290D02*
D03*
D51*
X-500Y-2250D02*
D03*
X-5250Y5750D02*
D03*
X-6750Y-2750D02*
D03*
X-6000Y-4750D02*
D03*
X8250Y-9750D02*
D03*
X-7750Y9500D02*
D03*
X-3500Y9250D02*
D03*
X5250Y-1250D02*
D03*
X8750D02*
D03*
X6000Y-250D02*
D03*
X4500Y750D02*
D03*
X8750Y-6500D02*
D03*
X15500Y5000D02*
D03*
X-7500D02*
D03*
X12750Y8000D02*
D03*
X-9000Y5500D02*
D03*
X5000Y2750D02*
D03*
X7151Y1151D02*
D03*
X2500Y-9000D02*
D03*
X1000Y-9500D02*
D03*
X-9000Y4250D02*
D03*
X-4500Y3750D02*
D03*
X-12500Y-4250D02*
D03*
Y-5250D02*
D03*
D52*
X1800Y3550D02*
D03*
Y2350D02*
D03*
Y1150D02*
D03*
Y-50D02*
D03*
X600Y3550D02*
D03*
Y2350D02*
D03*
Y1150D02*
D03*
Y-50D02*
D03*
X-600Y3550D02*
D03*
Y2350D02*
D03*
Y1150D02*
D03*
Y-50D02*
D03*
X-1800Y3550D02*
D03*
Y2350D02*
D03*
Y1150D02*
D03*
Y-50D02*
D03*
D59*
X4529Y4753D02*
G03*
X4529Y4753I-279J0D01*
G01*
D60*
X16047Y3825D02*
D03*
X14684Y3329D02*
D03*
X13453Y6712D02*
D03*
X14816Y7208D02*
D03*
D61*
X0Y1750D02*
D03*
D62*
X-3025Y-450D02*
D03*
Y-50D02*
D03*
Y350D02*
D03*
Y750D02*
D03*
Y1150D02*
D03*
Y1550D02*
D03*
Y1950D02*
D03*
Y2350D02*
D03*
Y2750D02*
D03*
Y3150D02*
D03*
Y3550D02*
D03*
Y3950D02*
D03*
X3025D02*
D03*
Y3550D02*
D03*
Y3150D02*
D03*
Y2750D02*
D03*
Y2350D02*
D03*
Y1950D02*
D03*
Y1550D02*
D03*
Y1150D02*
D03*
Y750D02*
D03*
Y350D02*
D03*
Y-50D02*
D03*
Y-450D02*
D03*
D63*
X-2200Y4775D02*
D03*
X-1800D02*
D03*
X-1400D02*
D03*
X-1000D02*
D03*
X-600D02*
D03*
X-200D02*
D03*
X200D02*
D03*
X600D02*
D03*
X1000D02*
D03*
X1400D02*
D03*
X1800D02*
D03*
X2200D02*
D03*
Y-1275D02*
D03*
X1800D02*
D03*
X1400D02*
D03*
X1000D02*
D03*
X600D02*
D03*
X200D02*
D03*
X-200D02*
D03*
X-600D02*
D03*
X-1000D02*
D03*
X-1400D02*
D03*
X-1800D02*
D03*
X-2200D02*
D03*
D64*
X4250Y-500D02*
D03*
X5250D02*
D03*
X-4250Y4750D02*
D03*
X-5250D02*
D03*
Y9500D02*
D03*
X-6250D02*
D03*
X-4250Y-2750D02*
D03*
X-5250D02*
D03*
X8750Y-7402D02*
D03*
X7750D02*
D03*
X6750D02*
D03*
X5750D02*
D03*
X500Y6377D02*
D03*
X-500D02*
D03*
D65*
X3250Y-2500D02*
D03*
X4250D02*
D03*
X-7250Y-8250D02*
D03*
X-6250D02*
D03*
D66*
X-6310Y3525D02*
D03*
Y4175D02*
D03*
Y4825D02*
D03*
Y5475D02*
D03*
X-8190Y3525D02*
D03*
Y4175D02*
D03*
Y4825D02*
D03*
Y5475D02*
D03*
D67*
X-6725Y7175D02*
D03*
Y8325D02*
D03*
X-5275D02*
D03*
Y7175D02*
D03*
D68*
X-8000Y7250D02*
D03*
Y8250D02*
D03*
X-500Y7279D02*
D03*
Y8279D02*
D03*
X-2500Y8250D02*
D03*
Y7250D02*
D03*
X-3500Y7250D02*
D03*
Y8250D02*
D03*
X-4823Y-3877D02*
D03*
Y-4877D02*
D03*
X177Y-4000D02*
D03*
Y-5000D02*
D03*
X9750Y-7351D02*
D03*
Y-6351D02*
D03*
D69*
X475Y9500D02*
D03*
X-475D02*
D03*
X-8225Y0D02*
D03*
X-7275D02*
D03*
D70*
X-1500Y8225D02*
D03*
Y7275D02*
D03*
X500Y8254D02*
D03*
Y7304D02*
D03*
D71*
X4250Y5062D02*
D03*
Y4438D02*
D03*
D72*
X-5925Y0D02*
D03*
X-4575D02*
D03*
X-4226Y-1500D02*
D03*
X-5576D02*
D03*
X-6825D02*
D03*
X-8175D02*
D03*
D73*
X-3573Y-4402D02*
D03*
X-1073D02*
D03*
D74*
X-8375Y-4800D02*
D03*
Y-6700D02*
D03*
X-6125Y-5750D02*
D03*
D75*
X500Y-7000D02*
D03*
Y-8000D02*
D03*
X1500Y-7000D02*
D03*
Y-8000D02*
D03*
X2500Y-7000D02*
D03*
Y-8000D02*
D03*
X7403Y3069D02*
D03*
Y2069D02*
D03*
X6500Y3069D02*
D03*
Y2069D02*
D03*
D76*
X425Y-10075D02*
D03*
Y-10925D02*
D03*
X-425D02*
D03*
Y-10075D02*
D03*
D77*
X7500Y-3750D02*
D03*
D78*
X6500Y-2200D02*
D03*
X6900D02*
D03*
X7300D02*
D03*
X7700D02*
D03*
X8100D02*
D03*
X8500D02*
D03*
Y-5300D02*
D03*
X8100D02*
D03*
X7700D02*
D03*
X7300D02*
D03*
X6900D02*
D03*
X6500D02*
D03*
D79*
X9050Y-2750D02*
D03*
Y-3150D02*
D03*
Y-3550D02*
D03*
Y-3950D02*
D03*
Y-4350D02*
D03*
Y-4750D02*
D03*
X5950D02*
D03*
Y-4350D02*
D03*
Y-3950D02*
D03*
Y-3550D02*
D03*
Y-3150D02*
D03*
Y-2750D02*
D03*
D80*
X500Y15500D02*
D03*
Y12100D02*
D03*
%TF.MD5,56f9497de8785a147db5bd02a35636d9*%
M02*
